<mxfile host="app.diagrams.net" modified="2024-01-22T20:47:35.976Z" agent="Mozilla/5.0 (Windows NT 10.0; Win64; x64) AppleWebKit/537.36 (KHTML, like Gecko) Chrome/120.0.0.0 Safari/537.36" etag="iN0gBQXuO25B65YJLzv1" version="22.1.21" type="device">
  <diagram id="dijq7EySqOm7LpBwnqDr" name="Page-1">
    <mxGraphModel dx="882" dy="578" grid="1" gridSize="10" guides="1" tooltips="1" connect="1" arrows="1" fold="1" page="1" pageScale="1" pageWidth="850" pageHeight="1100" math="0" shadow="0">
      <root>
        <mxCell id="0" />
        <mxCell id="1" parent="0" />
        <mxCell id="TLqeQ-VDL2vmQK_o6Y5u-4" style="edgeStyle=orthogonalEdgeStyle;rounded=0;orthogonalLoop=1;jettySize=auto;html=1;exitX=1;exitY=0.5;exitDx=0;exitDy=0;" edge="1" parent="1" source="TLqeQ-VDL2vmQK_o6Y5u-1" target="TLqeQ-VDL2vmQK_o6Y5u-3">
          <mxGeometry relative="1" as="geometry" />
        </mxCell>
        <mxCell id="TLqeQ-VDL2vmQK_o6Y5u-1" value="Sender" style="rounded=1;whiteSpace=wrap;html=1;" vertex="1" parent="1">
          <mxGeometry x="40" y="40" width="120" height="60" as="geometry" />
        </mxCell>
        <mxCell id="TLqeQ-VDL2vmQK_o6Y5u-6" style="edgeStyle=orthogonalEdgeStyle;rounded=0;orthogonalLoop=1;jettySize=auto;html=1;exitX=1;exitY=0.5;exitDx=0;exitDy=0;" edge="1" parent="1" source="TLqeQ-VDL2vmQK_o6Y5u-2" target="TLqeQ-VDL2vmQK_o6Y5u-3">
          <mxGeometry relative="1" as="geometry" />
        </mxCell>
        <mxCell id="TLqeQ-VDL2vmQK_o6Y5u-2" value="Receiver" style="rounded=1;whiteSpace=wrap;html=1;" vertex="1" parent="1">
          <mxGeometry x="40" y="200" width="120" height="60" as="geometry" />
        </mxCell>
        <mxCell id="TLqeQ-VDL2vmQK_o6Y5u-5" style="edgeStyle=orthogonalEdgeStyle;rounded=0;orthogonalLoop=1;jettySize=auto;html=1;exitX=0.5;exitY=0;exitDx=0;exitDy=0;entryX=1;entryY=0.5;entryDx=0;entryDy=0;" edge="1" parent="1" source="TLqeQ-VDL2vmQK_o6Y5u-3" target="TLqeQ-VDL2vmQK_o6Y5u-1">
          <mxGeometry relative="1" as="geometry" />
        </mxCell>
        <mxCell id="TLqeQ-VDL2vmQK_o6Y5u-7" style="edgeStyle=orthogonalEdgeStyle;rounded=0;orthogonalLoop=1;jettySize=auto;html=1;exitX=0.5;exitY=1;exitDx=0;exitDy=0;entryX=1;entryY=0.5;entryDx=0;entryDy=0;" edge="1" parent="1" source="TLqeQ-VDL2vmQK_o6Y5u-3" target="TLqeQ-VDL2vmQK_o6Y5u-2">
          <mxGeometry relative="1" as="geometry" />
        </mxCell>
        <mxCell id="TLqeQ-VDL2vmQK_o6Y5u-3" value="Chat service" style="rounded=1;whiteSpace=wrap;html=1;" vertex="1" parent="1">
          <mxGeometry x="240" y="120" width="120" height="60" as="geometry" />
        </mxCell>
        <mxCell id="TLqeQ-VDL2vmQK_o6Y5u-8" value="web socket" style="text;html=1;strokeColor=none;fillColor=none;align=center;verticalAlign=middle;whiteSpace=wrap;rounded=0;" vertex="1" parent="1">
          <mxGeometry x="200" y="40" width="80" height="30" as="geometry" />
        </mxCell>
        <mxCell id="TLqeQ-VDL2vmQK_o6Y5u-9" value="web socket" style="text;html=1;strokeColor=none;fillColor=none;align=center;verticalAlign=middle;whiteSpace=wrap;rounded=0;" vertex="1" parent="1">
          <mxGeometry x="200" y="230" width="80" height="30" as="geometry" />
        </mxCell>
      </root>
    </mxGraphModel>
  </diagram>
</mxfile>
